<svg width="399" height="400" xmlns="http://www.w3.org/2000/svg" version="1.1">
 <g id="Layer_1">
  <title>Layer 1</title>
  <g>
   <g id="svg_1">
    <path fill="rgb(100%,83.137256%,0%)" fill-rule="nonzero" d="m284.32813,84.53516l4.46094,13.79297l14.46093,0l-11.71875,8.5l4.46485,13.76172l-11.66797,-8.47266l-11.7461,8.47266l4.5,-13.76172l-11.71093,-8.5l14.46093,0l4.4961,-13.79297zm0,0"/>
    <path fill="rgb(100%,83.137256%,0%)" fill-rule="nonzero" d="m284.32813,279.41016l4.46094,13.77734l14.46093,0l-11.71875,8.49219l4.46485,13.78516l-11.66797,-8.51563l-11.7461,8.51563l4.5,-13.78516l-11.71093,-8.49219l14.46093,0l4.4961,-13.77734zm0,0"/>
    <path fill="rgb(100%,83.137256%,0%)" fill-rule="nonzero" d="m237.60938,267.98829l4.46484,13.78515l14.5,0l-11.7539,8.51563l4.5,13.76172l-11.71094,-8.5l-11.70703,8.5l4.5039,-13.76172l-11.75,-8.51563l14.4961,0l4.45703,-13.78515zm0,0"/>
    <path fill="rgb(100%,83.137256%,0%)" fill-rule="nonzero" d="m235.34375,99.35938l4.46094,13.78516l14.49609,0l-11.7539,8.49218l4.46094,13.80078l-11.66407,-8.50781l-11.71093,8.50781l4.46093,-13.80078l-11.70703,-8.49218l14.4961,0l4.46093,-13.78516zm0,0"/>
    <path fill="rgb(100%,83.137256%,0%)" fill-rule="nonzero" d="m331.00391,99.35938l4.45703,13.78516l14.5,0l-11.74609,8.49218l4.5039,13.80078l-11.71484,-8.50781l-11.70703,8.50781l4.5039,-13.80078l-11.7539,-8.49218l14.5,0l4.45703,-13.78516zm0,0"/>
    <path fill="rgb(100%,83.137256%,0%)" fill-rule="nonzero" d="m367.48828,133.54297l4.46094,13.78516l14.45703,0l-11.70703,8.50781l4.45313,13.76953l-11.66407,-8.48828l-11.75,8.48828l4.4961,-13.76953l-11.7461,-8.50781l14.5,0l4.5,-13.78516zm0,0"/>
    <path fill="rgb(100%,83.137256%,0%)" fill-rule="nonzero" d="m379.98828,181.40235l4.46485,13.77734l14.49219,0l-11.74219,8.50781l4.5,13.76172l-11.71485,-8.52343l-11.70703,8.52343l4.46485,-13.76172l-11.71094,-8.50781l14.45312,0l4.5,-13.77734zm0,0"/>
    <path fill="rgb(100%,83.137256%,0%)" fill-rule="nonzero" d="m367.48828,230.42969l4.46094,13.75l14.45703,0l-11.70703,8.49219l4.45313,13.79297l-11.66407,-8.50781l-11.75,8.50781l4.4961,-13.79297l-11.7461,-8.49219l14.5,0l4.5,-13.75zm0,0"/>
    <path fill="rgb(100%,83.137256%,0%)" fill-rule="nonzero" d="m332.11719,265.72657l4.50391,13.76172l14.45703,0l-11.67188,8.53125l4.46485,13.76171l-11.75391,-8.50781l-11.66406,8.50781l4.45703,-13.76171l-11.70703,-8.53125l14.45312,0l4.46094,-13.76172zm0,0"/>
    <path fill="rgb(0%,43.529412%,72.941178%)" fill-rule="nonzero" d="m47.46485,193.9961l-3.88282,-26.57813c-0.75,-5.24609 -1.15625,-8.58593 -1.42968,-11.3125l-0.13672,0c-0.47656,2.1836 -1.22656,5.04297 -2.2461,8.31641l-9.8789,29.57422l-6.67578,0l-9.33203,-27.59766c-1.16016,-3.47656 -2.38282,-7.29297 -2.92969,-10.29297l-0.06641,0c-0.27344,3.75 -0.75,7.42969 -1.29687,11.92578l-3.13282,25.96485l-6.40234,0l6.74219,-46l7.69922,0l9.67187,28.96484c1.16016,3.33985 2.04297,6.40625 2.58985,9.12891l0.13671,0c0.67969,-3.19922 1.36329,-5.44922 2.45313,-8.72266l10.01172,-29.37109l7.76562,0l6.94922,46l-6.60937,0zm0,0"/>
    <path fill="rgb(0%,43.529412%,72.941178%)" fill-rule="nonzero" d="m91.26563,193.9961l-3.81641,-10.76563l-19.55078,0l-3.8125,10.76563l-6.40234,0l16.75781,-46l6.94531,0l16.89453,46l-7.01562,0zm-11.51172,-32.16406c-0.88672,-2.31641 -1.5,-4.5 -2.04297,-6.88282l-0.13672,0c-0.54687,2.2461 -1.22656,4.63282 -2.11328,6.94922l-5.92578,16.35547l16.21094,0l-5.99219,-16.42187zm0,0"/>
    <path fill="rgb(0%,43.529412%,72.941178%)" fill-rule="nonzero" d="m116.33203,194.26954c-4.63281,0 -8.24218,-0.27344 -11.64843,-0.27344l0,-45.92969c3.54297,-0.07031 8.71875,-0.27344 13.75781,-0.27344c14.71484,0 23.50391,6.88282 23.50391,22.69141c0,15.74219 -10.5586,23.78516 -25.61329,23.78516zm1.4961,-41.36719c-2.38281,0 -5.17578,0.13672 -6.87891,0.20703l0,35.4375c1.70313,0.26953 4.22266,0.40625 6.0625,0.40625c10.76172,0 18.32422,-5.58594 18.32422,-18.05859c0,-11.72266 -5.58594,-17.99219 -17.50781,-17.99219zm0,0"/>
    <path fill="rgb(0%,43.529412%,72.941178%)" fill-rule="nonzero" d="m150.86719,193.9961l0,-46l23.63672,0l0,5.17969l-17.37109,0l0,14.58593l16.55468,0l0,5.04297l-16.55468,0l0,15.94531l17.37109,0l0,5.2461l-23.63672,0zm0,0"/>
    <path fill="rgb(0%,43.529412%,72.941178%)" fill-rule="nonzero" d="m214.53125,193.9961l0,-46l6.26953,0l0,46l-6.26953,0zm0,0"/>
    <path fill="rgb(0%,43.529412%,72.941178%)" fill-rule="nonzero" d="m262.07813,193.9961l-17.50781,-28.48438c-2.10938,-3.33984 -3.7461,-6.47265 -5.2461,-9.53906c0.27344,4.90625 0.47656,15.94531 0.47656,23.23438l0,14.78906l-6.1289,0l0,-46l8.24219,0l17.09765,27.60156c2.04297,3.33984 3.94922,6.8125 5.65625,10.08594c-0.27344,-5.65625 -0.47656,-16.96875 -0.47656,-24.60156l0,-13.08594l6.0625,0l0,46l-8.17578,0zm0,0"/>
    <path fill="rgb(0%,43.529412%,72.941178%)" fill-rule="nonzero" d="m0.60157,255.32813l0,-53.66406l31.38671,0l0,12.5625l-16.60546,0l0,7.55078l15.73437,0l0,12.08594l-15.73437,0l0,8.66406l16.60546,0l0,12.80078l-31.38671,0zm0,0"/>
    <path fill="rgb(0%,43.529412%,72.941178%)" fill-rule="nonzero" d="m61.45703,256.44141c-17.24609,0 -21.77343,-9.14453 -21.77343,-20.51172l0,-34.26562l14.78125,0l0,33.55078c0,5.72265 1.75,8.82422 7.86718,8.82422c5.96094,0 7.86719,-2.54297 7.86719,-9.22266l0,-33.15234l14.6211,0l0,32.35937c0,15.58203 -8.98047,22.41797 -23.36329,22.41797zm0,0"/>
    <path fill="rgb(0%,43.529412%,72.941178%)" fill-rule="nonzero" d="m119.76953,255.32813l-10.08984,-19.55859l-0.55859,0l0,19.55859l-14.78125,0l0,-53.66406c5.00781,-0.31641 11.60156,-0.39844 18.35937,-0.39844c13.66797,0 21.29688,4.85156 21.29688,16.77734c0,6.35938 -3.57422,12.48047 -9.77344,14.70703c1.42969,2.14454 2.69922,4.13282 3.89062,6.19922l9.61719,16.37891l-17.96094,0zm-7.86718,-41.89844c-0.95313,0 -2.30469,0.08203 -2.78125,0.16016l0,11.52734c0.55859,0.07813 1.66797,0.16016 2.46484,0.16016c4.05078,0 6.83203,-2.14844 6.83203,-6.1211c0,-3.17968 -1.66797,-5.72656 -6.51562,-5.72656zm0,0"/>
    <path fill="rgb(0%,43.529412%,72.941178%)" fill-rule="nonzero" d="m164.01953,256.44141c-16.84765,0 -25.10937,-10.17578 -25.10937,-27.19141c0,-17.32812 12.23828,-28.69921 27.25781,-28.69921c13.98438,0 25.10938,7.55468 25.10938,27.03125c0,17.49218 -12,28.85937 -27.25782,28.85937zm1.03516,-42.375c-5.16797,0 -10.41016,3.97656 -10.41016,14.07031c0,9.14453 2.9375,14.71094 10.08985,14.71094c4.60937,0 10.80859,-3.17969 10.80859,-14.55078c0,-9.37891 -3.41797,-14.23047 -10.48828,-14.23047zm0,0"/>
    <path fill="rgb(0%,43.529412%,72.941178%)" fill-rule="nonzero" d="m214.70703,238.8711c-0.32031,0 -1.1914,0 -2.22656,-0.07813l0,16.53516l-14.78125,0l0,-53.66406c4.92578,-0.23828 10.33203,-0.39844 16.21094,-0.39844c14.30469,0 22.17187,6.12109 22.17187,17.96875c0,10.41406 -6.99218,19.63672 -21.375,19.63672zm-0.79687,-25.59766c-0.23828,0 -0.79297,0 -1.42969,0.07813l0,13.11718c0.55469,0.08204 0.875,0.08204 1.11328,0.08204c3.8125,0 7.23047,-2.38672 7.23047,-6.83985c0,-3.49609 -1.82812,-6.4375 -6.91406,-6.4375zm0,0"/>
    <path fill="rgb(0%,43.529412%,72.941178%)" fill-rule="nonzero" d="m241.71094,255.32813l0,-53.66406l31.39063,0l0,12.5625l-16.60938,0l0,7.55078l15.73438,0l0,12.08594l-15.73438,0l0,8.66406l16.60938,0l0,12.80078l-31.39063,0zm0,0"/>
   </g>
  </g>
 </g>

</svg>