<?xml version="1.0" encoding="UTF-8"?>
<svg xmlns="http://www.w3.org/2000/svg" xmlns:xlink="http://www.w3.org/1999/xlink" width="400px" height="231px" viewBox="0 0 399 231" version="1.1">
<g id="surface1">
<path style=" stroke:none;fill-rule:nonzero;fill:rgb(100%,83.137256%,0%);fill-opacity:1;" d="M 284.273438 0 L 288.734375 13.792969 L 303.195312 13.792969 L 291.476562 22.292969 L 295.941406 36.054688 L 284.273438 27.582031 L 272.527344 36.054688 L 277.027344 22.292969 L 265.316406 13.792969 L 279.777344 13.792969 Z M 284.273438 0 "/>
<path style=" stroke:none;fill-rule:nonzero;fill:rgb(100%,83.137256%,0%);fill-opacity:1;" d="M 284.273438 194.875 L 288.734375 208.652344 L 303.195312 208.652344 L 291.476562 217.144531 L 295.941406 230.929688 L 284.273438 222.414062 L 272.527344 230.929688 L 277.027344 217.144531 L 265.316406 208.652344 L 279.777344 208.652344 Z M 284.273438 194.875 "/>
<path style=" stroke:none;fill-rule:nonzero;fill:rgb(100%,83.137256%,0%);fill-opacity:1;" d="M 237.554688 183.453125 L 242.019531 197.238281 L 256.519531 197.238281 L 244.765625 205.753906 L 249.265625 219.515625 L 237.554688 211.015625 L 225.847656 219.515625 L 230.351562 205.753906 L 218.601562 197.238281 L 233.097656 197.238281 Z M 237.554688 183.453125 "/>
<path style=" stroke:none;fill-rule:nonzero;fill:rgb(100%,83.137256%,0%);fill-opacity:1;" d="M 235.289062 14.824219 L 239.75 28.609375 L 254.246094 28.609375 L 242.492188 37.101562 L 246.953125 50.902344 L 235.289062 42.394531 L 223.578125 50.902344 L 228.039062 37.101562 L 216.332031 28.609375 L 230.828125 28.609375 Z M 235.289062 14.824219 "/>
<path style=" stroke:none;fill-rule:nonzero;fill:rgb(100%,83.137256%,0%);fill-opacity:1;" d="M 330.949219 14.824219 L 335.40625 28.609375 L 349.90625 28.609375 L 338.160156 37.101562 L 342.664062 50.902344 L 330.949219 42.394531 L 319.242188 50.902344 L 323.746094 37.101562 L 311.992188 28.609375 L 326.492188 28.609375 Z M 330.949219 14.824219 "/>
<path style=" stroke:none;fill-rule:nonzero;fill:rgb(100%,83.137256%,0%);fill-opacity:1;" d="M 367.433594 49.007812 L 371.894531 62.792969 L 386.351562 62.792969 L 374.644531 71.300781 L 379.097656 85.070312 L 367.433594 76.582031 L 355.683594 85.070312 L 360.179688 71.300781 L 348.433594 62.792969 L 362.933594 62.792969 Z M 367.433594 49.007812 "/>
<path style=" stroke:none;fill-rule:nonzero;fill:rgb(100%,83.137256%,0%);fill-opacity:1;" d="M 379.933594 96.867188 L 384.398438 110.644531 L 398.890625 110.644531 L 387.148438 119.152344 L 391.648438 132.914062 L 379.933594 124.390625 L 368.226562 132.914062 L 372.691406 119.152344 L 360.980469 110.644531 L 375.433594 110.644531 Z M 379.933594 96.867188 "/>
<path style=" stroke:none;fill-rule:nonzero;fill:rgb(100%,83.137256%,0%);fill-opacity:1;" d="M 367.433594 145.894531 L 371.894531 159.644531 L 386.351562 159.644531 L 374.644531 168.136719 L 379.097656 181.929688 L 367.433594 173.421875 L 355.683594 181.929688 L 360.179688 168.136719 L 348.433594 159.644531 L 362.933594 159.644531 Z M 367.433594 145.894531 "/>
<path style=" stroke:none;fill-rule:nonzero;fill:rgb(100%,83.137256%,0%);fill-opacity:1;" d="M 332.0625 181.191406 L 336.566406 194.953125 L 351.023438 194.953125 L 339.351562 203.484375 L 343.816406 217.246094 L 332.0625 208.738281 L 320.398438 217.246094 L 324.855469 203.484375 L 313.148438 194.953125 L 327.601562 194.953125 Z M 332.0625 181.191406 "/>
<path style=" stroke:none;fill-rule:nonzero;fill:rgb(0%,43.529412%,72.941178%);fill-opacity:1;" d="M 47.410156 109.460938 L 43.527344 82.882812 C 42.777344 77.636719 42.371094 74.296875 42.097656 71.570312 L 41.960938 71.570312 C 41.484375 73.753906 40.734375 76.613281 39.714844 79.886719 L 29.835938 109.460938 L 23.160156 109.460938 L 13.828125 81.863281 C 12.667969 78.386719 11.445312 74.570312 10.898438 71.570312 L 10.832031 71.570312 C 10.558594 75.320312 10.082031 79 9.535156 83.496094 L 6.402344 109.460938 L 0 109.460938 L 6.742188 63.460938 L 14.441406 63.460938 L 24.113281 92.425781 C 25.273438 95.765625 26.15625 98.832031 26.703125 101.554688 L 26.839844 101.554688 C 27.519531 98.355469 28.203125 96.105469 29.292969 92.832031 L 39.304688 63.460938 L 47.070312 63.460938 L 54.019531 109.460938 Z M 47.410156 109.460938 "/>
<path style=" stroke:none;fill-rule:nonzero;fill:rgb(0%,43.529412%,72.941178%);fill-opacity:1;" d="M 91.210938 109.460938 L 87.394531 98.695312 L 67.84375 98.695312 L 64.03125 109.460938 L 57.628906 109.460938 L 74.386719 63.460938 L 81.332031 63.460938 L 98.226562 109.460938 Z M 79.699219 77.296875 C 78.8125 74.980469 78.199219 72.796875 77.65625 70.414062 L 77.519531 70.414062 C 76.972656 72.660156 76.292969 75.046875 75.40625 77.363281 L 69.480469 93.71875 L 85.691406 93.71875 Z M 79.699219 77.296875 "/>
<path style=" stroke:none;fill-rule:nonzero;fill:rgb(0%,43.529412%,72.941178%);fill-opacity:1;" d="M 116.277344 109.734375 C 111.644531 109.734375 108.035156 109.460938 104.628906 109.460938 L 104.628906 63.53125 C 108.171875 63.460938 113.347656 63.257812 118.386719 63.257812 C 133.101562 63.257812 141.890625 70.140625 141.890625 85.949219 C 141.890625 101.691406 131.332031 109.734375 116.277344 109.734375 Z M 117.773438 68.367188 C 115.390625 68.367188 112.597656 68.503906 110.894531 68.574219 L 110.894531 104.011719 C 112.597656 104.28125 115.117188 104.417969 116.957031 104.417969 C 127.71875 104.417969 135.28125 98.832031 135.28125 86.359375 C 135.28125 74.636719 129.695312 68.367188 117.773438 68.367188 Z M 117.773438 68.367188 "/>
<path style=" stroke:none;fill-rule:nonzero;fill:rgb(0%,43.529412%,72.941178%);fill-opacity:1;" d="M 150.8125 109.460938 L 150.8125 63.460938 L 174.449219 63.460938 L 174.449219 68.640625 L 157.078125 68.640625 L 157.078125 83.226562 L 173.632812 83.226562 L 173.632812 88.269531 L 157.078125 88.269531 L 157.078125 104.214844 L 174.449219 104.214844 L 174.449219 109.460938 Z M 150.8125 109.460938 "/>
<path style=" stroke:none;fill-rule:nonzero;fill:rgb(0%,43.529412%,72.941178%);fill-opacity:1;" d="M 214.476562 109.460938 L 214.476562 63.460938 L 220.746094 63.460938 L 220.746094 109.460938 Z M 214.476562 109.460938 "/>
<path style=" stroke:none;fill-rule:nonzero;fill:rgb(0%,43.529412%,72.941178%);fill-opacity:1;" d="M 262.023438 109.460938 L 244.515625 80.976562 C 242.40625 77.636719 240.769531 74.503906 239.269531 71.4375 C 239.542969 76.34375 239.746094 87.382812 239.746094 94.671875 L 239.746094 109.460938 L 233.617188 109.460938 L 233.617188 63.460938 L 241.859375 63.460938 L 258.957031 91.0625 C 261 94.402344 262.90625 97.875 264.613281 101.148438 C 264.339844 95.492188 264.136719 84.179688 264.136719 76.546875 L 264.136719 63.460938 L 270.199219 63.460938 L 270.199219 109.460938 Z M 262.023438 109.460938 "/>
<path style=" stroke:none;fill-rule:nonzero;fill:rgb(0%,43.529412%,72.941178%);fill-opacity:1;" d="M 0.546875 170.792969 L 0.546875 117.128906 L 31.933594 117.128906 L 31.933594 129.691406 L 15.328125 129.691406 L 15.328125 137.242188 L 31.0625 137.242188 L 31.0625 149.328125 L 15.328125 149.328125 L 15.328125 157.992188 L 31.933594 157.992188 L 31.933594 170.792969 Z M 0.546875 170.792969 "/>
<path style=" stroke:none;fill-rule:nonzero;fill:rgb(0%,43.529412%,72.941178%);fill-opacity:1;" d="M 61.402344 171.90625 C 44.15625 171.90625 39.628906 162.761719 39.628906 151.394531 L 39.628906 117.128906 L 54.410156 117.128906 L 54.410156 150.679688 C 54.410156 156.402344 56.160156 159.503906 62.277344 159.503906 C 68.238281 159.503906 70.144531 156.960938 70.144531 150.28125 L 70.144531 117.128906 L 84.765625 117.128906 L 84.765625 149.488281 C 84.765625 165.070312 75.785156 171.90625 61.402344 171.90625 Z M 61.402344 171.90625 "/>
<path style=" stroke:none;fill-rule:nonzero;fill:rgb(0%,43.529412%,72.941178%);fill-opacity:1;" d="M 119.714844 170.792969 L 109.625 151.234375 L 109.066406 151.234375 L 109.066406 170.792969 L 94.285156 170.792969 L 94.285156 117.128906 C 99.292969 116.8125 105.886719 116.730469 112.644531 116.730469 C 126.3125 116.730469 133.941406 121.582031 133.941406 133.507812 C 133.941406 139.867188 130.367188 145.988281 124.167969 148.214844 C 125.597656 150.359375 126.867188 152.347656 128.058594 154.414062 L 137.675781 170.792969 Z M 111.847656 128.894531 C 110.894531 128.894531 109.542969 128.976562 109.066406 129.054688 L 109.066406 140.582031 C 109.625 140.660156 110.734375 140.742188 111.53125 140.742188 C 115.582031 140.742188 118.363281 138.59375 118.363281 134.621094 C 118.363281 131.441406 116.695312 128.894531 111.847656 128.894531 Z M 111.847656 128.894531 "/>
<path style=" stroke:none;fill-rule:nonzero;fill:rgb(0%,43.529412%,72.941178%);fill-opacity:1;" d="M 163.964844 171.90625 C 147.117188 171.90625 138.855469 161.730469 138.855469 144.714844 C 138.855469 127.386719 151.09375 116.015625 166.113281 116.015625 C 180.097656 116.015625 191.222656 123.570312 191.222656 143.046875 C 191.222656 160.539062 179.222656 171.90625 163.964844 171.90625 Z M 165 129.53125 C 159.832031 129.53125 154.589844 133.507812 154.589844 143.601562 C 154.589844 152.746094 157.527344 158.3125 164.679688 158.3125 C 169.289062 158.3125 175.488281 155.132812 175.488281 143.761719 C 175.488281 134.382812 172.070312 129.53125 165 129.53125 Z M 165 129.53125 "/>
<path style=" stroke:none;fill-rule:nonzero;fill:rgb(0%,43.529412%,72.941178%);fill-opacity:1;" d="M 214.652344 154.335938 C 214.332031 154.335938 213.460938 154.335938 212.425781 154.257812 L 212.425781 170.792969 L 197.644531 170.792969 L 197.644531 117.128906 C 202.570312 116.890625 207.976562 116.730469 213.855469 116.730469 C 228.160156 116.730469 236.027344 122.851562 236.027344 134.699219 C 236.027344 145.113281 229.035156 154.335938 214.652344 154.335938 Z M 213.855469 128.738281 C 213.617188 128.738281 213.0625 128.738281 212.425781 128.816406 L 212.425781 141.933594 C 212.980469 142.015625 213.300781 142.015625 213.539062 142.015625 C 217.351562 142.015625 220.769531 139.628906 220.769531 135.175781 C 220.769531 131.679688 218.941406 128.738281 213.855469 128.738281 Z M 213.855469 128.738281 "/>
<path style=" stroke:none;fill-rule:nonzero;fill:rgb(0%,43.529412%,72.941178%);fill-opacity:1;" d="M 241.65625 170.792969 L 241.65625 117.128906 L 273.046875 117.128906 L 273.046875 129.691406 L 256.4375 129.691406 L 256.4375 137.242188 L 272.171875 137.242188 L 272.171875 149.328125 L 256.4375 149.328125 L 256.4375 157.992188 L 273.046875 157.992188 L 273.046875 170.792969 Z M 241.65625 170.792969 "/>
</g>
</svg>
